<svg width="14" height="18" viewBox="0 0 14 18" fill="none" xmlns="http://www.w3.org/2000/svg">
<path d="M11.1229 3.25825V2.0237C11.1229 1.71205 10.9991 1.41317 10.7788 1.1928C10.5584 0.972434 10.2595 0.848633 9.94787 0.848633H4.07255C3.7609 0.848633 3.46202 0.972434 3.24165 1.1928C3.02128 1.41317 2.89748 1.71205 2.89748 2.0237V3.25825C2.23439 3.39431 1.63851 3.75491 1.21038 4.27924C0.782254 4.80356 0.548076 5.45951 0.547356 6.13642V14.3619C0.547356 15.141 0.856858 15.8882 1.40778 16.4391C1.95869 16.99 2.7059 17.2995 3.48501 17.2995H10.5354C11.3145 17.2995 12.0617 16.99 12.6126 16.4391C13.1636 15.8882 13.4731 15.141 13.4731 14.3619V6.13642C13.4723 5.45951 13.2382 4.80356 12.81 4.27924C12.3819 3.75491 11.786 3.39431 11.1229 3.25825ZM6.42267 2.0237H7.59774V3.19876H6.42267V2.0237ZM4.07255 2.0237H5.24761V3.19876H4.07255V2.0237ZM7.59774 13.1868V13.7743C7.59774 13.9302 7.53584 14.0796 7.42565 14.1898C7.31547 14.3 7.16603 14.3619 7.01021 14.3619C6.85438 14.3619 6.70494 14.3 6.59476 14.1898C6.48457 14.0796 6.42267 13.9302 6.42267 13.7743V13.1868H5.83514C5.67932 13.1868 5.52988 13.1249 5.41969 13.0147C5.30951 12.9045 5.24761 12.7551 5.24761 12.5993C5.24761 12.4434 5.30951 12.294 5.41969 12.1838C5.52988 12.0736 5.67932 12.0117 5.83514 12.0117H7.59774C7.75356 12.0117 7.903 11.9498 8.01319 11.8397C8.12337 11.7295 8.18527 11.58 8.18527 11.4242C8.18527 11.2684 8.12337 11.1189 8.01319 11.0088C7.903 10.8986 7.75356 10.8367 7.59774 10.8367H6.42267C5.9552 10.8367 5.50688 10.651 5.17633 10.3204C4.84578 9.98987 4.66008 9.54155 4.66008 9.07408C4.66008 8.60661 4.84578 8.15829 5.17633 7.82774C5.50688 7.49719 5.9552 7.31148 6.42267 7.31148V6.72395C6.42267 6.56813 6.48457 6.41869 6.59476 6.3085C6.70494 6.19832 6.85438 6.13642 7.01021 6.13642C7.16603 6.13642 7.31547 6.19832 7.42565 6.3085C7.53584 6.41869 7.59774 6.56813 7.59774 6.72395V7.31148H8.18527C8.34109 7.31148 8.49053 7.37338 8.60072 7.48357C8.7109 7.59375 8.7728 7.74319 8.7728 7.89902C8.7728 8.05484 8.7109 8.20428 8.60072 8.31446C8.49053 8.42465 8.34109 8.48655 8.18527 8.48655H6.42267C6.26685 8.48655 6.11741 8.54845 6.00723 8.65863C5.89704 8.76882 5.83514 8.91826 5.83514 9.07408C5.83514 9.2299 5.89704 9.37934 6.00723 9.48953C6.11741 9.59971 6.26685 9.66161 6.42267 9.66161H7.59774C8.06521 9.66161 8.51353 9.84731 8.84408 10.1779C9.17463 10.5084 9.36033 10.9567 9.36033 11.4242C9.36033 11.8917 9.17463 12.34 8.84408 12.6706C8.51353 13.0011 8.06521 13.1868 7.59774 13.1868ZM9.94787 3.19876H8.7728V2.0237H9.94787V3.19876Z" fill="#FF9774"/>
</svg>
