<svg width="15" height="18" viewBox="0 0 15 18" fill="none" xmlns="http://www.w3.org/2000/svg">
<path fill-rule="evenodd" clip-rule="evenodd" d="M0.643361 1.51638C0.0591049 2.10064 0.0591049 3.03984 0.0591049 4.92022V13.8934C0.0591049 15.7738 0.0591049 16.713 0.643361 17.2973C1.22762 17.8815 2.16681 17.8815 4.0472 17.8815H10.0293C11.9097 17.8815 12.8489 17.8815 13.4332 17.2973C14.0174 16.713 14.0174 15.7738 14.0174 13.8934V4.92022C14.0174 3.03984 14.0174 2.10064 13.4332 1.51638C12.8489 0.932129 11.9097 0.932129 10.0293 0.932129H4.0472C2.16681 0.932129 1.22762 0.932129 0.643361 1.51638ZM4.0472 4.92022C3.78277 4.92022 3.52918 5.02527 3.3422 5.21225C3.15522 5.39922 3.05018 5.65282 3.05018 5.91725C3.05018 6.18168 3.15522 6.43527 3.3422 6.62225C3.52918 6.80923 3.78277 6.91427 4.0472 6.91427H10.0293C10.2938 6.91427 10.5474 6.80923 10.7343 6.62225C10.9213 6.43527 11.0264 6.18168 11.0264 5.91725C11.0264 5.65282 10.9213 5.39922 10.7343 5.21225C10.5474 5.02527 10.2938 4.92022 10.0293 4.92022H4.0472ZM4.0472 8.90832C3.78277 8.90832 3.52918 9.01336 3.3422 9.20034C3.15522 9.38732 3.05018 9.64092 3.05018 9.90534C3.05018 10.1698 3.15522 10.4234 3.3422 10.6103C3.52918 10.7973 3.78277 10.9024 4.0472 10.9024H10.0293C10.2938 10.9024 10.5474 10.7973 10.7343 10.6103C10.9213 10.4234 11.0264 10.1698 11.0264 9.90534C11.0264 9.64092 10.9213 9.38732 10.7343 9.20034C10.5474 9.01336 10.2938 8.90832 10.0293 8.90832H4.0472ZM4.0472 12.8964C3.78277 12.8964 3.52918 13.0015 3.3422 13.1884C3.15522 13.3754 3.05018 13.629 3.05018 13.8934C3.05018 14.1579 3.15522 14.4115 3.3422 14.5984C3.52918 14.7854 3.78277 14.8905 4.0472 14.8905H8.03529C8.29972 14.8905 8.55332 14.7854 8.7403 14.5984C8.92727 14.4115 9.03232 14.1579 9.03232 13.8934C9.03232 13.629 8.92727 13.3754 8.7403 13.1884C8.55332 13.0015 8.29972 12.8964 8.03529 12.8964H4.0472Z" fill="#54CEFF"/>
</svg>
