<svg width="16" height="16" viewBox="0 0 16 16" fill="none" xmlns="http://www.w3.org/2000/svg">
<path d="M11.7456 13.814L14.1727 11.4245L13.6377 10.8887L11.7456 12.7543L10.9295 11.921L10.3937 12.4611L11.7456 13.814ZM2.6861 4.3314H11.6268V3.47681H2.68524L2.6861 4.3314ZM12.2832 15.7701C11.3311 15.7701 10.5236 15.4382 9.8604 14.7745C9.19666 14.1114 8.8648 13.3038 8.8648 12.3517C8.8648 11.3997 9.19666 10.5919 9.8604 9.92813C10.5241 9.26439 11.3317 8.93281 12.2832 8.93338C13.2346 8.93395 14.0425 9.26553 14.7068 9.92813C15.3711 10.5907 15.7027 11.3986 15.7015 12.3517C15.7015 13.3032 15.37 14.1108 14.7068 14.7745C14.0425 15.4382 13.2346 15.7701 12.2832 15.7701ZM0.318878 14.619V1.66935C0.318878 1.28649 0.453334 0.960609 0.722246 0.691698C0.991157 0.422786 1.31704 0.28833 1.6999 0.28833H12.6122C12.9939 0.28833 13.3195 0.422786 13.589 0.691698C13.8579 0.960609 13.9923 1.28649 13.9923 1.66935V6.74904C13.4842 6.58211 12.9634 6.49637 12.4302 6.49181C11.8969 6.48725 11.3713 6.55591 10.8534 6.69777H2.68524V7.55236H8.93402C8.50558 7.84919 8.12785 8.19758 7.80083 8.59753C7.47381 8.99748 7.20432 9.43788 6.99239 9.91873H2.6861V10.7733H6.71122C6.64969 11.0035 6.60184 11.2357 6.56765 11.4698C6.53347 11.704 6.51609 11.9484 6.51552 12.203C6.51552 12.5933 6.55626 12.9804 6.63773 13.3644C6.7192 13.7484 6.84169 14.1185 7.00521 14.4746L6.97615 14.5036L6.00619 13.7977L4.85591 14.619L3.70563 13.7977L2.55535 14.619L1.40421 13.7977L0.318878 14.619Z" fill="#FFC500"/>
</svg>
