<svg width="24" height="24" viewBox="0 0 24 24" fill="none" xmlns="http://www.w3.org/2000/svg">
<path d="M21.8038 10.0431H20.9982V10.0016L11.997 10.0016V14.0021L17.6492 14.0021C16.8246 16.3309 14.6088 18.0027 11.997 18.0027C8.68301 18.0027 5.99615 15.3158 5.99615 12.0018C5.99615 8.68789 8.68301 6.00103 11.997 6.00103C13.5267 6.00103 14.9184 6.57811 15.978 7.52073L18.8069 4.69185C17.0206 3.02713 14.6313 2.00049 11.997 2.00049C6.47371 2.00049 1.99561 6.47859 1.99561 12.0018C1.99561 17.5251 6.47371 22.0032 11.997 22.0032C17.5202 22.0032 21.9983 17.5251 21.9983 12.0018C21.9983 11.3312 21.9293 10.6767 21.8038 10.0431Z" fill="#FFC107"/>
<path d="M3.14893 7.34671L6.43487 9.75654C7.32399 7.55524 9.47728 6.00103 11.9971 6.00103C13.5268 6.00103 14.9185 6.57811 15.9782 7.52074L18.807 4.69185C17.0208 3.02713 14.6315 2.00049 11.9971 2.00049C8.1556 2.00049 4.82415 4.16928 3.14893 7.34671Z" fill="#FF3D00"/>
<path d="M11.997 22.0031C14.5803 22.0031 16.9276 21.0145 18.7024 19.4068L15.607 16.7874C14.5691 17.5767 13.3009 18.0036 11.997 18.0026C9.39562 18.0026 7.18682 16.3439 6.3547 14.0291L3.09326 16.5419C4.74849 19.7808 8.10994 22.0031 11.997 22.0031Z" fill="#4CAF50"/>
<path d="M21.8039 10.043H20.9983V10.0015L11.9971 10.0015V14.002H17.6493C17.2549 15.1104 16.5444 16.0789 15.6056 16.7879L15.6071 16.7869L18.7025 19.4062C18.4834 19.6053 21.9984 17.0024 21.9984 12.0017C21.9984 11.3311 21.9294 10.6766 21.8039 10.043Z" fill="#1976D2"/>
</svg>
