<svg width="19" height="18" viewBox="0 0 19 18" fill="none" xmlns="http://www.w3.org/2000/svg">
<path d="M16.1225 6.00751L11.21 2.07751C10.25 1.31251 8.75 1.30501 7.7975 2.07001L2.885 6.00751C2.18 6.57001 1.7525 7.69501 1.9025 8.58001L2.8475 14.235C3.065 15.5025 4.2425 16.5 5.525 16.5H13.475C14.7425 16.5 15.9425 15.48 16.16 14.2275L17.105 8.57251C17.24 7.69501 16.8125 6.57001 16.1225 6.00751ZM10.0625 13.5C10.0625 13.8075 9.8075 14.0625 9.5 14.0625C9.1925 14.0625 8.9375 13.8075 8.9375 13.5V11.25C8.9375 10.9425 9.1925 10.6875 9.5 10.6875C9.8075 10.6875 10.0625 10.9425 10.0625 11.25V13.5Z" fill="#878787"/>
</svg>
