<svg width="50" height="17" viewBox="0 0 50 17" fill="none" xmlns="http://www.w3.org/2000/svg">
<path d="M50.4928 1.64834L49.6696 5.35322C49.6512 5.4395 49.6037 5.51684 49.5351 5.57232C49.4665 5.62781 49.381 5.65809 49.2928 5.6581H48.122C48.0691 5.65814 48.0168 5.64729 47.9682 5.62624C47.9197 5.60519 47.876 5.57438 47.8398 5.53572C47.8037 5.49706 47.7759 5.45139 47.7581 5.40153C47.7404 5.35167 47.7331 5.2987 47.7367 5.2459V5.177C47.7928 3.96908 47.0306 3.06603 45.3038 3.06664C42.4342 3.06664 40.3464 5.42212 40.0733 8.51541C39.791 11.7099 42.0245 13.566 45.1147 13.5654C46.3155 13.5689 47.5099 13.3907 48.6574 13.0368C48.7213 13.0166 48.7893 13.0133 48.8548 13.0273C48.9203 13.0413 48.981 13.072 49.0311 13.1165C49.0812 13.161 49.1189 13.2177 49.1405 13.2811C49.1621 13.3445 49.1669 13.4124 49.1544 13.4782L48.7885 15.3922C48.7735 15.4721 48.7373 15.5465 48.6837 15.6076C48.63 15.6686 48.5609 15.7141 48.4836 15.7392C47.8501 15.941 46.072 16.4148 43.3495 16.4154C36.8818 16.4154 34.2574 12.6959 34.6635 8.90383C35.0281 5.527 37.2623 0.550783 46.0733 0.550783C47.4592 0.550032 48.8386 0.73898 50.1733 1.11237C50.2855 1.14308 50.3814 1.21605 50.441 1.31598C50.5006 1.41591 50.5191 1.53503 50.4928 1.64834ZM13.7196 1.1203L13.5056 2.08676C13.4834 2.1907 13.5008 2.29918 13.5544 2.39097C13.6079 2.48277 13.6938 2.55128 13.7952 2.5831C14.1678 2.72639 14.2501 3.08432 13.9257 3.352L8.51413 7.84956L9.4434 3.61176C9.60194 2.96115 10.1184 2.69347 10.4452 2.58737L10.4983 2.5709C10.5689 2.5492 10.6324 2.50914 10.6824 2.45482C10.7325 2.40051 10.7672 2.33388 10.783 2.26176L11.005 1.2581C11.0172 1.20223 11.0168 1.14433 11.0036 1.08866C10.9905 1.033 10.965 0.981002 10.929 0.936513C10.8931 0.892023 10.8476 0.85618 10.796 0.831631C10.7443 0.807083 10.6878 0.794456 10.6306 0.794686H3.65377C3.5581 0.794644 3.46528 0.827255 3.39066 0.887128C3.31604 0.947001 3.26409 1.03055 3.2434 1.12395L3.01779 2.14103C2.99614 2.24126 3.01222 2.34596 3.06296 2.43507C3.1137 2.52418 3.19554 2.59143 3.29279 2.62395L3.3617 2.64773C3.7995 2.81908 4.30682 3.20505 4.0934 4.21968L2.42633 11.8349C1.99096 13.9148 1.28609 14.3392 0.613526 14.4172H0.592184C0.50445 14.427 0.421985 14.4641 0.356367 14.5231C0.29075 14.5822 0.245276 14.6603 0.226331 14.7465L0.0104772 15.7221C-0.00216378 15.7809 -0.0014991 15.8417 0.0124226 15.9002C0.0263442 15.9587 0.0531702 16.0133 0.0909359 16.0601C0.128702 16.1069 0.17645 16.1446 0.230685 16.1705C0.28492 16.1964 0.344267 16.2099 0.404379 16.2099H7.73974C7.82685 16.2098 7.91133 16.18 7.97926 16.1255C8.0472 16.071 8.09455 15.9949 8.11352 15.9099L8.36657 14.7685C8.38658 14.6784 8.37374 14.5842 8.33035 14.5028C8.28696 14.4214 8.2159 14.3582 8.12999 14.3246L8.08243 14.3057C7.71108 14.155 7.20438 13.8343 7.33365 13.2294L8.1873 9.33554C11.1074 14.6782 12.0733 16.2154 15.5806 16.2148H18.7458C18.8326 16.2148 18.9167 16.1853 18.9845 16.1311C19.0522 16.0769 19.0994 16.0013 19.1184 15.9166L19.3397 14.9276C19.3533 14.8683 19.3535 14.8066 19.3404 14.7472C19.3272 14.6878 19.301 14.632 19.2637 14.5839C19.2263 14.5358 19.1788 14.4967 19.1244 14.4692C19.0701 14.4417 19.0104 14.4267 18.9495 14.4252C18.1568 14.413 17.769 14.2294 16.9812 13.2166L12.9166 7.71603L18.1983 3.32578C18.9068 2.77151 19.7714 2.61542 20.2501 2.552L20.2977 2.54712C20.3793 2.53949 20.4563 2.50624 20.5179 2.45213C20.5794 2.39803 20.6223 2.32584 20.6403 2.2459L20.8562 1.2703C20.8696 1.21338 20.8698 1.15419 20.857 1.09715C20.8443 1.04011 20.8187 0.98671 20.7823 0.94095C20.746 0.895189 20.6997 0.858259 20.647 0.832927C20.5943 0.807596 20.5366 0.794522 20.4782 0.794686H14.1245C14.03 0.794594 13.9383 0.826843 13.8646 0.886076C13.791 0.945309 13.7398 1.02796 13.7196 1.1203ZM33.2611 5.35017H34.4964C34.584 5.35029 34.669 5.32049 34.7373 5.26571C34.8056 5.21093 34.8531 5.13445 34.8721 5.04895L35.7123 1.26176C35.7244 1.20552 35.7237 1.14728 35.7104 1.09132C35.6971 1.03535 35.6715 0.983075 35.6353 0.938303C35.5992 0.89353 35.5535 0.857399 35.5017 0.83255C35.4498 0.807702 35.393 0.794765 35.3355 0.794686H22.3416C22.2457 0.794647 22.1528 0.827323 22.078 0.887309C22.0033 0.947295 21.9513 1.031 21.9306 1.12456L21.7074 2.13615C21.6861 2.2319 21.7006 2.33212 21.7481 2.41793C21.7957 2.50374 21.8729 2.56921 21.9653 2.602L22.0086 2.61786C22.4355 2.78127 23.0318 3.19529 22.7727 4.21237L20.2251 15.7471C20.2127 15.8032 20.213 15.8614 20.2261 15.9173C20.2392 15.9733 20.2647 16.0256 20.3006 16.0704C20.3366 16.1151 20.3822 16.1513 20.4341 16.176C20.4859 16.2008 20.5427 16.2137 20.6001 16.2136H26.444C26.5314 16.2136 26.6161 16.1838 26.6843 16.1292C26.7525 16.0745 26.8 15.9983 26.819 15.913L27.0733 14.7618C27.0916 14.6794 27.0809 14.5933 27.043 14.518C27.0051 14.4427 26.9423 14.3827 26.8653 14.3483L26.8086 14.3221C26.4379 14.1392 25.8861 13.7227 26.0708 12.9148C26.0916 12.8069 26.6464 10.3069 26.6464 10.3069H31.616C31.7036 10.3069 31.7887 10.277 31.8571 10.2221C31.9255 10.1672 31.9732 10.0907 31.9922 10.005L32.4599 7.89834C32.4724 7.84193 32.472 7.78343 32.4589 7.72716C32.4458 7.67088 32.4202 7.61828 32.384 7.57321C32.3479 7.52815 32.3021 7.49178 32.25 7.46679C32.1979 7.4418 32.1408 7.42883 32.083 7.42883H27.2812L28.1769 3.34347L31.5306 3.33981C32.6141 3.33981 32.9446 3.90566 32.8818 4.87029C32.8818 4.87029 32.8818 4.8831 32.8769 4.92212C32.8713 4.97602 32.877 5.0305 32.8938 5.08204C32.9105 5.13359 32.9378 5.18106 32.974 5.22139C33.0102 5.26172 33.0545 5.29402 33.1039 5.3162C33.1533 5.33838 33.2069 5.34995 33.2611 5.35017Z" fill="#E4002B"/>
</svg>
