<svg width="12" height="17" viewBox="0 0 12 17" fill="none" xmlns="http://www.w3.org/2000/svg">
<path d="M6 12.3638L9.18225 9.18228C9.81151 8.55291 10.24 7.75108 10.4136 6.87819C10.5872 6.0053 10.498 5.10054 10.1574 4.27831C9.81677 3.45609 9.23999 2.75333 8.49999 2.2589C7.75998 1.76447 6.88998 1.50056 6 1.50056C5.11002 1.50056 4.24002 1.76447 3.50001 2.2589C2.76001 2.75333 2.18323 3.45609 1.84261 4.27831C1.502 5.10054 1.41284 6.0053 1.58641 6.87819C1.75998 7.75108 2.18849 8.55291 2.81775 9.18228L6 12.3638ZM10.2427 10.2428L6 14.4855L1.75725 10.2428C0.918165 9.40365 0.346751 8.33455 0.115265 7.17067C-0.116222 6.00679 0.00261639 4.80041 0.456751 3.70407C0.910886 2.60773 1.67992 1.67068 2.66661 1.0114C3.6533 0.35213 4.81332 0.000244141 6 0.000244141C7.18667 0.000244141 8.3467 0.35213 9.33339 1.0114C10.3201 1.67068 11.0891 2.60773 11.5432 3.70407C11.9974 4.80041 12.1162 6.00679 11.8847 7.17067C11.6532 8.33455 11.0818 9.40365 10.2427 10.2428ZM0.749999 15H11.25V16.5H0.749999V15Z" fill="#0023D5"/>
</svg>
