<svg width="18" height="20" viewBox="0 0 18 20" fill="none" xmlns="http://www.w3.org/2000/svg">
<path d="M16.9092 4.98564L9.64022 1.00833C9.446 0.901018 9.22773 0.844727 9.00583 0.844727C8.78394 0.844727 8.56567 0.901018 8.37145 1.00833L1.10244 4.98729C0.894854 5.10087 0.721566 5.2681 0.600677 5.47152C0.479787 5.67494 0.415729 5.90709 0.415192 6.14372V14.0438C0.415729 14.2804 0.479787 14.5126 0.600677 14.716C0.721566 14.9194 0.894854 15.0867 1.10244 15.2002L8.37145 19.1792C8.56567 19.2865 8.78394 19.3428 9.00583 19.3428C9.22773 19.3428 9.446 19.2865 9.64022 19.1792L16.9092 15.2002C17.1168 15.0867 17.2901 14.9194 17.411 14.716C17.5319 14.5126 17.5959 14.2804 17.5965 14.0438V6.14455C17.5964 5.90749 17.5325 5.67483 17.4116 5.47094C17.2907 5.26704 17.1172 5.09942 16.9092 4.98564ZM9.00583 2.16477L15.6421 5.79927L13.183 7.14569L6.54594 3.51118L9.00583 2.16477ZM9.00583 9.43377L2.36956 5.79927L5.16978 4.26617L11.8061 7.90067L9.00583 9.43377ZM1.73683 6.9557L8.34502 10.572V17.6585L1.73683 14.0446V6.9557ZM16.2748 14.0413L9.66665 17.6585V10.5753L12.3099 9.12897V12.077C12.3099 12.2523 12.3795 12.4204 12.5035 12.5443C12.6274 12.6682 12.7955 12.7379 12.9707 12.7379C13.146 12.7379 13.3141 12.6682 13.438 12.5443C13.5619 12.4204 13.6316 12.2523 13.6316 12.077V8.40537L16.2748 6.9557V14.0405V14.0413Z" fill="#FFB703"/>
</svg>
