<svg width="17" height="18" viewBox="0 0 17 18" fill="none" xmlns="http://www.w3.org/2000/svg">
<path d="M13.8366 16.5H3.16992C2.80173 16.5 2.50325 16.1642 2.50325 15.75V2.25C2.50325 1.83579 2.80173 1.5 3.16992 1.5H13.8366C14.2048 1.5 14.5033 1.83579 14.5033 2.25V15.75C14.5033 16.1642 14.2048 16.5 13.8366 16.5ZM13.1699 15V3H3.83658V15H13.1699ZM6.50325 4.5V6C6.50325 7.24264 7.39866 8.25 8.50326 8.25C9.6078 8.25 10.5033 7.24264 10.5033 6V4.5H11.8366V6C11.8366 8.07105 10.3442 9.75 8.50326 9.75C6.6623 9.75 5.16992 8.07105 5.16992 6V4.5H6.50325Z" fill="#878787"/>
</svg>
