<svg width="19" height="20" viewBox="0 0 19 20" fill="none" xmlns="http://www.w3.org/2000/svg">
<path d="M15.6921 19.5H3.3141C2.43514 19.5 1.59219 19.1508 0.970677 18.5293C0.349163 17.9078 0 17.0649 0 16.1859V3.80787C0.00165014 2.93 0.351541 2.08864 0.972877 1.46847C1.59421 0.848306 2.43622 0.499998 3.3141 0.5H15.6921C16.1265 0.5 16.5567 0.585561 16.958 0.751796C17.3593 0.918032 17.724 1.16169 18.0311 1.46885C18.3383 1.77602 18.582 2.14067 18.7482 2.542C18.9144 2.94333 19 3.37347 19 3.80787V16.1859C19 17.0638 18.6517 17.9058 18.0315 18.5271C17.4114 19.1485 16.57 19.4983 15.6921 19.5ZM3.3141 2.05738C3.0837 2.05656 2.8554 2.10123 2.6423 2.18883C2.4292 2.27644 2.23549 2.40525 2.07228 2.56788C1.90908 2.73051 1.77958 2.92376 1.69122 3.13654C1.60286 3.34933 1.55738 3.57747 1.55738 3.80787V16.1859C1.55738 16.6518 1.74246 17.0986 2.07191 17.4281C2.40136 17.7575 2.84819 17.9426 3.3141 17.9426H15.6921C15.9225 17.9426 16.1507 17.8971 16.3635 17.8088C16.5762 17.7204 16.7695 17.5909 16.9321 17.4277C17.0948 17.2645 17.2236 17.0708 17.3112 16.8577C17.3988 16.6446 17.4434 16.4163 17.4426 16.1859V3.80787C17.4426 3.34361 17.2582 2.89837 16.9299 2.57008C16.6016 2.2418 16.1564 2.05738 15.6921 2.05738H3.3141Z" fill="black"/>
<path d="M7.02064 10.7787C6.80559 10.778 6.59319 10.7312 6.39769 10.6416C6.12426 10.5174 5.89277 10.3165 5.73132 10.0633C5.56988 9.81004 5.48541 9.51539 5.48818 9.21508V1.27869C5.48818 1.07217 5.57022 0.874105 5.71625 0.728073C5.86229 0.58204 6.06035 0.5 6.26687 0.5C6.47339 0.5 6.67145 0.58204 6.81748 0.728073C6.96352 0.874105 7.04556 1.07217 7.04556 1.27869V9.21508L8.50949 7.91934C8.78461 7.67373 9.14052 7.53797 9.50933 7.53797C9.87814 7.53797 10.234 7.67373 10.5092 7.91934L12.0105 9.22131L11.9606 1.27869C11.9606 1.07217 12.0427 0.874105 12.1887 0.728073C12.3347 0.58204 12.5328 0.5 12.7393 0.5C12.9458 0.5 13.1439 0.58204 13.2899 0.728073C13.436 0.874105 13.518 1.07217 13.518 1.27869V9.21508C13.5208 9.51539 13.4363 9.81004 13.2749 10.0633C13.1134 10.3165 12.8819 10.5174 12.6085 10.6416C12.3432 10.7636 12.0481 10.8056 11.7593 10.7625C11.4706 10.7193 11.2006 10.5929 10.9826 10.3987L9.49998 9.11541L8.01736 10.4049C7.74192 10.6471 7.38738 10.78 7.02064 10.7787ZM10.4344 15.6502H4.82785C4.62133 15.6502 4.42327 15.5681 4.27724 15.4221C4.1312 15.2761 4.04916 15.078 4.04916 14.8715C4.04916 14.665 4.1312 14.4669 4.27724 14.3209C4.42327 14.1748 4.62133 14.0928 4.82785 14.0928H10.4344C10.6409 14.0928 10.839 14.1748 10.985 14.3209C11.1311 14.4669 11.2131 14.665 11.2131 14.8715C11.2131 15.078 11.1311 15.2761 10.985 15.4221C10.839 15.5681 10.6409 15.6502 10.4344 15.6502Z" fill="black"/>
</svg>
