<svg width="23" height="20" viewBox="0 0 23 20" fill="none" xmlns="http://www.w3.org/2000/svg">
<path fill-rule="evenodd" clip-rule="evenodd" d="M17.3235 0.58823C17.3235 0.389113 17.2329 0.203501 17.0826 0.0950067C16.9323 -0.0134992 16.7428 -0.0301696 16.579 0.050701L13.9914 1.32856C12.6237 2.00396 11.1437 2.35294 9.64703 2.35294H1.97056C1.77003 2.35294 1.58671 2.47882 1.49704 2.6781L1.38525 2.92651C0.725701 4.3922 0.382324 6.00837 0.382324 7.64706C0.382324 9.28576 0.725701 10.9019 1.38525 12.3676L1.49704 12.616C1.58671 12.8153 1.77003 12.9412 1.97056 12.9412H5.14703V19.4118C5.14703 19.7366 5.38406 20 5.67644 20H7.26468C7.55706 20 7.79409 19.7366 7.79409 19.4118V12.9412H9.64703C11.1437 12.9412 12.6237 13.2901 13.9914 13.9655L16.579 15.2434C16.7428 15.3242 16.9323 15.3076 17.0826 15.1991C17.2329 15.0906 17.3235 14.9051 17.3235 14.7059V10.3861C17.4573 10.2967 17.6021 10.1812 17.7378 10.0626C17.9989 9.83447 18.2948 9.53564 18.4466 9.31082C18.7443 8.86976 18.9117 8.27129 18.9117 7.64706C18.9117 7.02283 18.7443 6.42441 18.4466 5.98328C18.2948 5.75845 17.9989 5.45963 17.7378 5.23158C17.6021 5.11297 17.4573 4.99738 17.3235 4.90801V0.58823ZM6.73527 12.9412H6.20585V18.8235H6.73527V12.9412ZM6.73527 11.7647V3.52941H2.29815C1.7344 4.81129 1.44115 6.21956 1.44115 7.64706C1.44115 9.07458 1.7344 10.4828 2.29815 11.7647H6.73527ZM17.5995 8.60494C17.5567 8.66835 17.4553 8.78341 17.3235 8.91423V6.37993C17.4553 6.51066 17.5567 6.62575 17.5995 6.68916C17.7422 6.90057 17.8529 7.24275 17.8529 7.64706C17.8529 8.05141 17.7422 8.39353 17.5995 8.60494ZM14.4214 2.40364L16.2647 1.49338V13.8007L14.4214 12.8905C12.9184 12.1482 11.2918 11.7647 9.64703 11.7647H7.79409V3.52941H9.64703C11.2918 3.52941 12.9184 3.14589 14.4214 2.40364Z" fill="#636363"/>
<path d="M19.4412 7.64705C19.4412 7.32218 19.6783 7.05881 19.9706 7.05881H22.0883C22.3806 7.05881 22.6177 7.32218 22.6177 7.64705C22.6177 7.97187 22.3806 8.23528 22.0883 8.23528H19.9706C19.6783 8.23528 19.4412 7.97187 19.4412 7.64705ZM22.4059 4.00002C22.6398 3.80509 22.6872 3.43639 22.5118 3.17649C22.3363 2.9166 22.0045 2.86392 21.7706 3.05884L19.653 4.82355C19.4191 5.01847 19.3716 5.38719 19.5471 5.64708C19.7225 5.90697 20.0544 5.95965 20.2883 5.76473L22.4059 4.00002ZM20.2883 9.5294C20.0544 9.33446 19.7225 9.38716 19.5471 9.64705C19.3716 9.90693 19.4191 10.2756 19.653 10.4706L21.7706 12.2353C22.0045 12.4302 22.3363 12.3775 22.5118 12.1176C22.6872 11.8578 22.6398 11.489 22.4059 11.2941L20.2883 9.5294Z" fill="#636363"/>
</svg>
