<svg width="21" height="22" viewBox="0 0 21 22" fill="none" xmlns="http://www.w3.org/2000/svg">
<g clip-path="url(#clip0_47_929)">
<path d="M17.993 16.7568L17.9929 16.7562L17.173 6.22366L16.9137 6.24318L17.1729 6.223L17.1729 6.22306C17.1116 5.41334 16.4397 4.773 15.6321 4.773H14.2681C14.1726 2.72453 12.5071 1.0806 10.4632 1.0806C8.41929 1.0806 6.75377 2.72454 6.65832 4.773H5.29437C4.48684 4.773 3.81457 5.41325 3.75359 6.22193C3.75359 6.22204 3.75358 6.22215 3.75357 6.22226L2.93338 16.7576L2.93333 16.7583C2.86455 17.6724 3.17527 18.5827 3.78773 19.2567C4.40037 19.931 5.26942 20.3186 6.17353 20.3186H14.7528C15.6569 20.3186 16.526 19.9311 17.1387 19.2567L16.9463 19.0819L17.1387 19.2567C17.7512 18.5826 18.0618 17.6723 17.993 16.7568ZM14.2724 5.03297H14.0124V4.95876L14.2724 5.03297ZM5.34096 6.38934H6.654V7.47967C6.654 7.92125 7.00648 8.28784 7.45172 8.28784C7.89697 8.28784 8.24945 7.92125 8.24945 7.47967V6.38934H12.6769V7.47967C12.6769 7.92125 13.0294 8.28784 13.4747 8.28784C13.9199 8.28784 14.2724 7.92125 14.2724 7.47967V6.38934H15.5855L16.4022 16.8811C16.4023 16.8813 16.4023 16.8815 16.4023 16.8817C16.438 17.3591 16.2826 17.8123 15.9648 18.1621C15.647 18.5118 15.2179 18.7023 14.7528 18.7023H6.17357C5.7085 18.7023 5.27938 18.5118 4.96161 18.1621C4.6437 17.8122 4.48834 17.3588 4.5241 16.8829C4.52411 16.8828 4.52412 16.8827 4.52412 16.8826L5.34096 6.38934ZM8.25683 4.773C8.34975 3.60865 9.30825 2.69695 10.4632 2.69695C11.6181 2.69695 12.5766 3.60867 12.6696 4.773H8.25683Z" fill="#0023D5" stroke="#0023D5" stroke-width="0.519947"/>
<path d="M7.53504 13.3493L7.71887 13.1655L7.53504 13.3493L9.01157 14.8258C9.18118 14.9954 9.40406 15.0804 9.62606 15.0804C9.84797 15.0804 10.0709 14.9955 10.2406 14.8258C10.2406 14.8258 10.2406 14.8258 10.2406 14.8258L13.391 11.6753C13.7304 11.3359 13.7305 10.7857 13.3911 10.4463V10.4463C13.0518 10.1068 12.5014 10.1068 12.1621 10.4462L12.1621 10.4463L9.6261 12.9822L8.76412 12.1202C8.76412 12.1202 8.76411 12.1202 8.76411 12.1202C8.42473 11.7808 7.87443 11.7808 7.53504 12.1202C7.19564 12.4596 7.19564 13.0099 7.53504 13.3493Z" fill="#0023D5" stroke="white" stroke-width="0.519947"/>
</g>
<defs>
<clipPath id="clip0_47_929">
<rect width="20.7979" height="20.7979" fill="white" transform="translate(0.0638428 0.300781)"/>
</clipPath>
</defs>
</svg>
