<svg width="54" height="56" viewBox="0 0 54 56" fill="none" xmlns="http://www.w3.org/2000/svg">
<path d="M53.7744 22.8318C53.474 22.5314 53.474 22.231 53.1736 21.9306L47.1653 15.9222C45.9636 14.7206 44.1611 14.7206 42.9594 15.9222C41.7578 17.1239 41.7578 18.9264 42.9594 20.1281L43.8607 21.0293H36.0498C34.2473 21.0293 33.0457 22.231 33.0457 24.0335C33.0457 25.836 34.2473 27.0377 36.0498 27.0377H43.8607L42.9594 27.9389C41.7578 29.1406 41.7578 30.9431 42.9594 32.1448C43.5603 32.7456 44.4615 33.046 45.0623 33.046C45.6632 33.046 46.5644 32.7456 47.1653 32.1448L53.1736 26.1364C53.474 25.836 53.7744 25.5356 53.7744 25.2352C54.0749 24.3339 54.0749 23.7331 53.7744 22.8318Z" fill="black"/>
<path d="M39.0542 33.0459C37.2517 33.0459 36.0501 34.2476 36.0501 36.0501V39.0542C36.0501 40.8568 34.8484 42.0584 33.0459 42.0584H30.0417V16.2225C30.0417 12.3171 27.6384 9.01252 24.3338 7.81085L19.5271 6.00835H33.0459C34.8484 6.00835 36.0501 7.21001 36.0501 9.01252V12.0167C36.0501 13.8192 37.2517 15.0209 39.0542 15.0209C40.8568 15.0209 42.0584 13.8192 42.0584 12.0167V9.01252C42.0584 3.90542 38.153 0 33.0459 0H3.00417C2.70376 0 2.40334 -2.90977e-07 2.10292 0.300417C1.8025 0.300417 1.50209 0.600835 1.50209 0.600835L1.20167 0.901252C0.901252 0.901252 0.600834 1.20167 0.600834 1.50209V1.8025C0.300417 1.8025 0 2.10292 0 2.40334V45.0626C0 46.2643 0.901251 47.4659 1.8025 47.7663L21.63 55.2768C22.2309 55.5772 23.1321 55.5772 23.733 55.5772C24.9346 55.5772 26.1363 55.2768 27.0376 54.3755C28.5396 53.1739 29.7413 51.3714 29.7413 49.5689V48.0668H32.7455C37.8526 48.0668 41.758 44.1613 41.758 39.0542V36.0501C42.0584 34.548 40.8568 33.0459 39.0542 33.0459ZM6.00835 42.9597V7.21001L21.9305 13.2184C23.1321 13.8192 24.0334 15.0209 24.0334 16.2225V49.5689L6.00835 42.9597Z" fill="black"/>
</svg>
