<svg width="59" height="53" viewBox="0 0 59 53" fill="none" xmlns="http://www.w3.org/2000/svg">
<path d="M17.9824 17.29H4.35291C1.9531 17.29 0 19.2406 0 21.6404V47.6834C0 50.0832 1.9531 52.0339 4.35291 52.0339H17.9824C20.3822 52.0339 22.3353 50.0832 22.3353 47.6834V21.6404C22.3353 19.2431 20.3822 17.29 17.9824 17.29ZM59 23.6258C59 19.6849 53.7115 17.29 51.3911 17.29H40.9332C42.7076 9.55952 40.5634 5.14705 39.0546 3.15176C37.5606 1.17881 35.5008 0 33.5427 0C32.0214 0 30.7111 0.717212 29.9616 1.97544C29.8468 2.16841 29.7859 2.38869 29.7854 2.61323V9.27909C28.284 13.6121 26.8173 16.9997 24.822 19.5657V49.2941C25.291 49.4504 25.7427 49.5571 26.1125 49.5571H49.0111C50.0882 49.5571 51.1355 48.9963 52.0612 47.9465C53.3417 46.4773 54.1979 44.214 54.2302 42.3577C56.0865 40.963 56.97 38.4168 56.8062 34.9126C58.8039 32.8379 58.6799 29.8921 58.0297 28.073C58.8461 26.9066 59 24.9287 59 23.6258Z" fill="black"/>
</svg>
